<?xml version="1.0" encoding="UTF-8" standalone="no"?><svg xmlns="http://www.w3.org/2000/svg" xmlns:xlink="http://www.w3.org/1999/xlink" clip-rule="evenodd" stroke-miterlimit="10" viewBox="0 0 387 374"><desc>SVG generated by Keynote</desc><defs></defs><g transform="matrix(1.00, 0.00, -0.00, -1.00, 0.0, 374.0)"><g><clipPath id="clip0x7f8920761f70"><path d="M 6.4 -3.4 L 390.1 -3.4 L 390.1 57.6 L 6.4 57.6 Z M 6.4 -3.4 "></path></clipPath><g clip-path="url(#clip0x7f8920761f70)"><text xml:space="preserve" font-family="Helvetica-Light,Helvetica" font-size="36.0" fill="#000000" transform="matrix(1.00, 0.00, -0.00, -1.00, 15.4, 13.9)">T</text><text xml:space="preserve" font-family="Helvetica-Light,Helvetica" font-size="36.0" fill="#000000" transform="matrix(1.00, 0.00, -0.00, -1.00, 31.4, 13.9)">e</text><text xml:space="preserve" font-family="Helvetica-Light,Helvetica" font-size="36.0" fill="#000000" transform="matrix(1.00, 0.00, -0.00, -1.00, 51.4, 13.9)">r</text><text xml:space="preserve" font-family="Helvetica-Light,Helvetica" font-size="36.0" fill="#000000" transform="matrix(1.00, 0.00, -0.00, -1.00, 64.1, 13.9)">m</text><text xml:space="preserve" font-family="Helvetica-Light,Helvetica" font-size="36.0" fill="#000000" transform="matrix(1.00, 0.00, -0.00, -1.00, 94.1, 13.9)">-</text><text xml:space="preserve" font-family="Helvetica-Light,Helvetica" font-size="36.0" fill="#000000" transform="matrix(1.00, 0.00, -0.00, -1.00, 106.1, 13.9)">D</text><text xml:space="preserve" font-family="Helvetica-Light,Helvetica" font-size="36.0" fill="#000000" transform="matrix(1.00, 0.00, -0.00, -1.00, 132.0, 13.9)">o</text><text xml:space="preserve" font-family="Helvetica-Light,Helvetica" font-size="36.0" fill="#000000" transform="matrix(1.00, 0.00, -0.00, -1.00, 152.1, 13.9)">c</text><text xml:space="preserve" font-family="Helvetica-Light,Helvetica" font-size="36.0" fill="#000000" transform="matrix(1.00, 0.00, -0.00, -1.00, 172.1, 13.9)">u</text><text xml:space="preserve" font-family="Helvetica-Light,Helvetica" font-size="36.0" fill="#000000" transform="matrix(1.00, 0.00, -0.00, -1.00, 192.1, 13.9)">m</text><text xml:space="preserve" font-family="Helvetica-Light,Helvetica" font-size="36.0" fill="#000000" transform="matrix(1.00, 0.00, -0.00, -1.00, 222.1, 13.9)">e</text><text xml:space="preserve" font-family="Helvetica-Light,Helvetica" font-size="36.0" fill="#000000" transform="matrix(1.00, 0.00, -0.00, -1.00, 242.1, 13.9)">n</text><text xml:space="preserve" font-family="Helvetica-Light,Helvetica" font-size="36.0" fill="#000000" transform="matrix(1.00, 0.00, -0.00, -1.00, 262.1, 13.9)">t</text><text xml:space="preserve" font-family="Helvetica-Light,Helvetica" font-size="36.0" fill="#000000" transform="matrix(1.00, 0.00, -0.00, -1.00, 272.1, 13.9)"> </text><text xml:space="preserve" font-family="Helvetica-Light,Helvetica" font-size="36.0" fill="#000000" transform="matrix(1.00, 0.00, -0.00, -1.00, 282.1, 13.9)">m</text><text xml:space="preserve" font-family="Helvetica-Light,Helvetica" font-size="36.0" fill="#000000" transform="matrix(1.00, 0.00, -0.00, -1.00, 312.1, 13.9)">a</text><text xml:space="preserve" font-family="Helvetica-Light,Helvetica" font-size="36.0" fill="#000000" transform="matrix(1.00, 0.00, -0.00, -1.00, 332.1, 13.9)">t</text><text xml:space="preserve" font-family="Helvetica-Light,Helvetica" font-size="36.0" fill="#000000" transform="matrix(1.00, 0.00, -0.00, -1.00, 342.1, 13.9)">r</text><text xml:space="preserve" font-family="Helvetica-Light,Helvetica" font-size="36.0" fill="#000000" transform="matrix(1.00, 0.00, -0.00, -1.00, 354.1, 13.9)">i</text><text xml:space="preserve" font-family="Helvetica-Light,Helvetica" font-size="36.0" fill="#000000" transform="matrix(1.00, 0.00, -0.00, -1.00, 362.1, 13.9)">x</text></g></g><g><clipPath id="clip0x7f8920773f40"><path d="M 54.4 85.0 L 342.1 85.0 L 342.1 318.6 L 54.4 318.6 Z M 54.4 85.0 "></path></clipPath><g clip-path="url(#clip0x7f8920773f40)"><path d="M 0.0 195.2 L -0.4 34.4 C -0.4 15.4 15.4 -0.4 34.4 -0.4 L 249.3 -0.4 C 268.3 -0.4 283.6 15.4 283.6 34.4 L 283.6 195.2 C 283.6 214.2 268.3 229.6 249.3 229.6 L 34.4 229.6 C 15.4 229.6 0.0 214.2 0.0 195.2 Z M 0.0 195.2 " fill="none" stroke="#000000" stroke-width="2.00" transform="matrix(1.00, 0.00, 0.00, -1.00, 56.4, 316.6)"></path></g></g><g><clipPath id="clip0x7f8920775410"><path d="M 84.7 77.0 L 311.8 77.0 L 311.8 326.7 L 84.7 326.7 Z M 84.7 77.0 "></path></clipPath><g clip-path="url(#clip0x7f8920775410)"><path d="M 86.0 326.0 L 311.0 326.0 L 311.0 78.0 L 86.0 78.0 Z M 85.7 325.7 " fill="#FEFFFF"></path></g></g><g><clipPath id="clip0x7f8920776210"><path d="M 63.6 254.8 L 332.9 254.8 L 332.9 319.8 L 63.6 319.8 Z M 63.6 254.8 "></path></clipPath><g clip-path="url(#clip0x7f8920776210)"><text xml:space="preserve" font-family="Helvetica-Light,Helvetica" font-size="38.0" fill="#000000" transform="matrix(1.00, 0.00, -0.00, -1.00, 84.2, 273.1)">1</text><text xml:space="preserve" font-family="Helvetica-Light,Helvetica" font-size="38.0" fill="#000000" transform="matrix(1.00, 0.00, -0.00, -1.00, 105.3, 273.1)"> </text><text xml:space="preserve" font-family="Helvetica-Light,Helvetica" font-size="38.0" fill="#000000" transform="matrix(1.00, 0.00, -0.00, -1.00, 115.9, 273.1)"> </text><text xml:space="preserve" font-family="Helvetica-Light,Helvetica" font-size="38.0" fill="#000000" transform="matrix(1.00, 0.00, -0.00, -1.00, 126.4, 273.1)">1</text><text xml:space="preserve" font-family="Helvetica-Light,Helvetica" font-size="38.0" fill="#000000" transform="matrix(1.00, 0.00, -0.00, -1.00, 147.6, 273.1)"> </text><text xml:space="preserve" font-family="Helvetica-Light,Helvetica" font-size="38.0" fill="#000000" transform="matrix(1.00, 0.00, -0.00, -1.00, 158.1, 273.1)"> </text><text xml:space="preserve" font-family="Helvetica-Light,Helvetica" font-size="38.0" fill="#000000" transform="matrix(1.00, 0.00, -0.00, -1.00, 168.7, 273.1)">2</text><text xml:space="preserve" font-family="Helvetica-Light,Helvetica" font-size="38.0" fill="#000000" transform="matrix(1.00, 0.00, -0.00, -1.00, 189.8, 273.1)"> </text><text xml:space="preserve" font-family="Helvetica-Light,Helvetica" font-size="38.0" fill="#000000" transform="matrix(1.00, 0.00, -0.00, -1.00, 200.4, 273.1)"> </text><text xml:space="preserve" font-family="Helvetica-Light,Helvetica" font-size="38.0" fill="#000000" transform="matrix(1.00, 0.00, -0.00, -1.00, 211.0, 273.1)">…</text><text xml:space="preserve" font-family="Helvetica-Light,Helvetica" font-size="38.0" fill="#000000" transform="matrix(1.00, 0.00, -0.00, -1.00, 249.0, 273.1)"> </text><text xml:space="preserve" font-family="Helvetica-Light,Helvetica" font-size="38.0" fill="#000000" transform="matrix(1.00, 0.00, -0.00, -1.00, 259.5, 273.1)"> </text><text xml:space="preserve" font-family="Helvetica-Light,Helvetica" font-size="38.0" fill="#000000" transform="matrix(1.00, 0.00, -0.00, -1.00, 270.1, 273.1)"> </text><text xml:space="preserve" font-family="Helvetica-Light,Helvetica" font-size="38.0" fill="#000000" transform="matrix(1.00, 0.00, -0.00, -1.00, 280.6, 273.1)"> </text><text xml:space="preserve" font-family="Helvetica-Light,Helvetica" font-size="38.0" fill="#000000" transform="matrix(1.00, 0.00, -0.00, -1.00, 291.2, 273.1)">0</text><text xml:space="preserve" font-family="Helvetica-Light,Helvetica" font-size="38.0" fill="#000000" transform="matrix(1.00, 0.00, -0.00, -1.00, 312.3, 273.1)"> </text><text xml:space="preserve" font-family="Helvetica-Light,Helvetica" font-size="38.0" fill="#000000" transform="matrix(1.00, 0.00, -0.00, -1.00, 322.9, 273.1)"> </text></g></g><g><clipPath id="clip0x7f892077d860"><path d="M 74.2 198.9 L 322.3 198.9 L 322.3 263.9 L 74.2 263.9 Z M 74.2 198.9 "></path></clipPath><g clip-path="url(#clip0x7f892077d860)"><text xml:space="preserve" font-family="Helvetica-Light,Helvetica" font-size="38.0" fill="#000000" transform="matrix(1.00, 0.00, -0.00, -1.00, 84.2, 217.1)">0</text><text xml:space="preserve" font-family="Helvetica-Light,Helvetica" font-size="38.0" fill="#000000" transform="matrix(1.00, 0.00, -0.00, -1.00, 105.3, 217.1)"> </text><text xml:space="preserve" font-family="Helvetica-Light,Helvetica" font-size="38.0" fill="#000000" transform="matrix(1.00, 0.00, -0.00, -1.00, 115.9, 217.1)"> </text><text xml:space="preserve" font-family="Helvetica-Light,Helvetica" font-size="38.0" fill="#000000" transform="matrix(1.00, 0.00, -0.00, -1.00, 126.4, 217.1)">1</text><text xml:space="preserve" font-family="Helvetica-Light,Helvetica" font-size="38.0" fill="#000000" transform="matrix(1.00, 0.00, -0.00, -1.00, 147.6, 217.1)"> </text><text xml:space="preserve" font-family="Helvetica-Light,Helvetica" font-size="38.0" fill="#000000" transform="matrix(1.00, 0.00, -0.00, -1.00, 158.1, 217.1)"> </text><text xml:space="preserve" font-family="Helvetica-Light,Helvetica" font-size="38.0" fill="#000000" transform="matrix(1.00, 0.00, -0.00, -1.00, 168.7, 217.1)">0</text><text xml:space="preserve" font-family="Helvetica-Light,Helvetica" font-size="38.0" fill="#000000" transform="matrix(1.00, 0.00, -0.00, -1.00, 189.8, 217.1)"> </text><text xml:space="preserve" font-family="Helvetica-Light,Helvetica" font-size="38.0" fill="#000000" transform="matrix(1.00, 0.00, -0.00, -1.00, 200.4, 217.1)"> </text><text xml:space="preserve" font-family="Helvetica-Light,Helvetica" font-size="38.0" fill="#000000" transform="matrix(1.00, 0.00, -0.00, -1.00, 211.0, 217.1)">…</text><text xml:space="preserve" font-family="Helvetica-Light,Helvetica" font-size="38.0" fill="#000000" transform="matrix(1.00, 0.00, -0.00, -1.00, 249.0, 217.1)"> </text><text xml:space="preserve" font-family="Helvetica-Light,Helvetica" font-size="38.0" fill="#000000" transform="matrix(1.00, 0.00, -0.00, -1.00, 259.5, 217.1)"> </text><text xml:space="preserve" font-family="Helvetica-Light,Helvetica" font-size="38.0" fill="#000000" transform="matrix(1.00, 0.00, -0.00, -1.00, 270.1, 217.1)"> </text><text xml:space="preserve" font-family="Helvetica-Light,Helvetica" font-size="38.0" fill="#000000" transform="matrix(1.00, 0.00, -0.00, -1.00, 280.6, 217.1)"> </text><text xml:space="preserve" font-family="Helvetica-Light,Helvetica" font-size="38.0" fill="#000000" transform="matrix(1.00, 0.00, -0.00, -1.00, 291.2, 217.1)">0</text></g></g><g><clipPath id="clip0x7f8920784260"><path d="M 55.6 142.9 L 324.9 142.9 L 324.9 207.9 L 55.6 207.9 Z M 55.6 142.9 "></path></clipPath><g clip-path="url(#clip0x7f8920784260)"><text xml:space="preserve" font-family="Helvetica-Light,Helvetica" font-size="38.0" fill="#000000" transform="matrix(1.00, 0.00, -0.00, -1.00, 76.2, 161.2)"> </text><text xml:space="preserve" font-family="Helvetica-Light,Helvetica" font-size="38.0" fill="#000000" transform="matrix(1.00, 0.00, -0.00, -1.00, 86.8, 161.2)">:</text><text xml:space="preserve" font-family="Helvetica-Light,Helvetica" font-size="38.0" fill="#000000" transform="matrix(1.00, 0.00, -0.00, -1.00, 97.3, 161.2)"> </text><text xml:space="preserve" font-family="Helvetica-Light,Helvetica" font-size="38.0" fill="#000000" transform="matrix(1.00, 0.00, -0.00, -1.00, 107.9, 161.2)"> </text><text xml:space="preserve" font-family="Helvetica-Light,Helvetica" font-size="38.0" fill="#000000" transform="matrix(1.00, 0.00, -0.00, -1.00, 118.4, 161.2)"> </text><text xml:space="preserve" font-family="Helvetica-Light,Helvetica" font-size="38.0" fill="#000000" transform="matrix(1.00, 0.00, -0.00, -1.00, 129.0, 161.2)">:</text><text xml:space="preserve" font-family="Helvetica-Light,Helvetica" font-size="38.0" fill="#000000" transform="matrix(1.00, 0.00, -0.00, -1.00, 139.6, 161.2)"> </text><text xml:space="preserve" font-family="Helvetica-Light,Helvetica" font-size="38.0" fill="#000000" transform="matrix(1.00, 0.00, -0.00, -1.00, 150.1, 161.2)"> </text><text xml:space="preserve" font-family="Helvetica-Light,Helvetica" font-size="38.0" fill="#000000" transform="matrix(1.00, 0.00, -0.00, -1.00, 160.7, 161.2)"> </text><text xml:space="preserve" font-family="Helvetica-Light,Helvetica" font-size="38.0" fill="#000000" transform="matrix(1.00, 0.00, -0.00, -1.00, 171.3, 161.2)">:</text><text xml:space="preserve" font-family="Helvetica-Light,Helvetica" font-size="38.0" fill="#000000" transform="matrix(1.00, 0.00, -0.00, -1.00, 181.8, 161.2)"> </text><text xml:space="preserve" font-family="Helvetica-Light,Helvetica" font-size="38.0" fill="#000000" transform="matrix(1.00, 0.00, -0.00, -1.00, 192.4, 161.2)"> </text><text xml:space="preserve" font-family="Helvetica-Light,Helvetica" font-size="38.0" fill="#000000" transform="matrix(1.00, 0.00, -0.00, -1.00, 203.0, 161.2)"> </text><text xml:space="preserve" font-family="Helvetica-Light,Helvetica" font-size="38.0" fill="#000000" transform="matrix(1.00, 0.00, -0.00, -1.00, 213.5, 161.2)">…</text><text xml:space="preserve" font-family="Helvetica-Light,Helvetica" font-size="38.0" fill="#000000" transform="matrix(1.00, 0.00, -0.00, -1.00, 251.5, 161.2)"> </text><text xml:space="preserve" font-family="Helvetica-Light,Helvetica" font-size="38.0" fill="#000000" transform="matrix(1.00, 0.00, -0.00, -1.00, 262.1, 161.2)"> </text><text xml:space="preserve" font-family="Helvetica-Light,Helvetica" font-size="38.0" fill="#000000" transform="matrix(1.00, 0.00, -0.00, -1.00, 272.6, 161.2)"> </text><text xml:space="preserve" font-family="Helvetica-Light,Helvetica" font-size="38.0" fill="#000000" transform="matrix(1.00, 0.00, -0.00, -1.00, 283.2, 161.2)"> </text><text xml:space="preserve" font-family="Helvetica-Light,Helvetica" font-size="38.0" fill="#000000" transform="matrix(1.00, 0.00, -0.00, -1.00, 293.8, 161.2)">:</text><text xml:space="preserve" font-family="Helvetica-Light,Helvetica" font-size="38.0" fill="#000000" transform="matrix(1.00, 0.00, -0.00, -1.00, 304.3, 161.2)"> </text><text xml:space="preserve" font-family="Helvetica-Light,Helvetica" font-size="38.0" fill="#000000" transform="matrix(1.00, 0.00, -0.00, -1.00, 314.9, 161.2)"> </text></g></g><g><clipPath id="clip0x7f892078d160"><path d="M 74.2 87.0 L 322.3 87.0 L 322.3 152.0 L 74.2 152.0 Z M 74.2 87.0 "></path></clipPath><g clip-path="url(#clip0x7f892078d160)"><text xml:space="preserve" font-family="Helvetica-Light,Helvetica" font-size="38.0" fill="#000000" transform="matrix(1.00, 0.00, -0.00, -1.00, 84.2, 105.2)">1</text><text xml:space="preserve" font-family="Helvetica-Light,Helvetica" font-size="38.0" fill="#000000" transform="matrix(1.00, 0.00, -0.00, -1.00, 105.3, 105.2)"> </text><text xml:space="preserve" font-family="Helvetica-Light,Helvetica" font-size="38.0" fill="#000000" transform="matrix(1.00, 0.00, -0.00, -1.00, 115.9, 105.2)"> </text><text xml:space="preserve" font-family="Helvetica-Light,Helvetica" font-size="38.0" fill="#000000" transform="matrix(1.00, 0.00, -0.00, -1.00, 126.4, 105.2)">0</text><text xml:space="preserve" font-family="Helvetica-Light,Helvetica" font-size="38.0" fill="#000000" transform="matrix(1.00, 0.00, -0.00, -1.00, 147.6, 105.2)"> </text><text xml:space="preserve" font-family="Helvetica-Light,Helvetica" font-size="38.0" fill="#000000" transform="matrix(1.00, 0.00, -0.00, -1.00, 158.1, 105.2)"> </text><text xml:space="preserve" font-family="Helvetica-Light,Helvetica" font-size="38.0" fill="#000000" transform="matrix(1.00, 0.00, -0.00, -1.00, 168.7, 105.2)">1</text><text xml:space="preserve" font-family="Helvetica-Light,Helvetica" font-size="38.0" fill="#000000" transform="matrix(1.00, 0.00, -0.00, -1.00, 189.8, 105.2)"> </text><text xml:space="preserve" font-family="Helvetica-Light,Helvetica" font-size="38.0" fill="#000000" transform="matrix(1.00, 0.00, -0.00, -1.00, 200.4, 105.2)"> </text><text xml:space="preserve" font-family="Helvetica-Light,Helvetica" font-size="38.0" fill="#000000" transform="matrix(1.00, 0.00, -0.00, -1.00, 211.0, 105.2)">…</text><text xml:space="preserve" font-family="Helvetica-Light,Helvetica" font-size="38.0" fill="#000000" transform="matrix(1.00, 0.00, -0.00, -1.00, 249.0, 105.2)"> </text><text xml:space="preserve" font-family="Helvetica-Light,Helvetica" font-size="38.0" fill="#000000" transform="matrix(1.00, 0.00, -0.00, -1.00, 259.5, 105.2)"> </text><text xml:space="preserve" font-family="Helvetica-Light,Helvetica" font-size="38.0" fill="#000000" transform="matrix(1.00, 0.00, -0.00, -1.00, 270.1, 105.2)"> </text><text xml:space="preserve" font-family="Helvetica-Light,Helvetica" font-size="38.0" fill="#000000" transform="matrix(1.00, 0.00, -0.00, -1.00, 280.6, 105.2)"> </text><text xml:space="preserve" font-family="Helvetica-Light,Helvetica" font-size="38.0" fill="#000000" transform="matrix(1.00, 0.00, -0.00, -1.00, 291.2, 105.2)">3</text></g></g><g><clipPath id="clip0x7f8920793b60"><path d="M 65.4 312.8 L 331.1 312.8 L 331.1 377.8 L 65.4 377.8 Z M 65.4 312.8 "></path></clipPath><g clip-path="url(#clip0x7f8920793b60)"><text xml:space="preserve" font-family="Helvetica-LightOblique,Helvetica" font-style="italic" font-size="38.0" fill="#164E86" transform="matrix(1.00, 0.00, -0.00, -1.00, 75.4, 331.0)">T</text><text xml:space="preserve" font-family="Helvetica-LightOblique,Helvetica" font-style="italic" font-size="25.3" fill="#164E86" transform="matrix(1.00, 0.00, -0.00, -1.00, 96.5, 328.1)">1</text><text xml:space="preserve" font-family="Helvetica-Light,Helvetica" font-size="25.3" fill="#164E86" transform="matrix(1.00, 0.00, -0.00, -1.00, 110.6, 328.1)"> </text><text xml:space="preserve" font-family="Helvetica-LightOblique,Helvetica" font-style="italic" font-size="38.0" fill="#164E86" transform="matrix(1.00, 0.00, -0.00, -1.00, 117.7, 331.0)">T</text><text xml:space="preserve" font-family="Helvetica-LightOblique,Helvetica" font-style="italic" font-size="25.3" fill="#164E86" transform="matrix(1.00, 0.00, -0.00, -1.00, 138.8, 328.1)">2</text><text xml:space="preserve" font-family="Helvetica-Light,Helvetica" font-size="25.3" fill="#164E86" transform="matrix(1.00, 0.00, -0.00, -1.00, 152.9, 328.1)"> </text><text xml:space="preserve" font-family="Helvetica-LightOblique,Helvetica" font-style="italic" font-size="38.0" fill="#164E86" transform="matrix(1.00, 0.00, -0.00, -1.00, 159.9, 331.0)">T</text><text xml:space="preserve" font-family="Helvetica-LightOblique,Helvetica" font-style="italic" font-size="25.3" fill="#164E86" transform="matrix(1.00, 0.00, -0.00, -1.00, 181.0, 328.1)">3</text><text xml:space="preserve" font-family="Helvetica-Light,Helvetica" font-size="25.3" fill="#164E86" transform="matrix(1.00, 0.00, -0.00, -1.00, 195.1, 328.1)"> </text><text xml:space="preserve" font-family="Helvetica-Light,Helvetica" font-size="25.3" fill="#164E86" transform="matrix(1.00, 0.00, -0.00, -1.00, 202.2, 328.1)"> </text><text xml:space="preserve" font-family="Helvetica-Light,Helvetica" font-size="38.0" fill="#164E86" transform="matrix(1.00, 0.00, -0.00, -1.00, 209.2, 331.0)">…</text><text xml:space="preserve" font-family="Helvetica-Light,Helvetica" font-size="38.0" fill="#164E86" transform="matrix(1.00, 0.00, -0.00, -1.00, 247.2, 331.0)"> </text><text xml:space="preserve" font-family="Helvetica-Light,Helvetica" font-size="38.0" fill="#164E86" transform="matrix(1.00, 0.00, -0.00, -1.00, 257.8, 331.0)"> </text><text xml:space="preserve" font-family="Helvetica-Light,Helvetica" font-size="38.0" fill="#164E86" transform="matrix(1.00, 0.00, -0.00, -1.00, 268.3, 331.0)"> </text><text xml:space="preserve" font-family="Helvetica-LightOblique,Helvetica" font-style="italic" font-size="38.0" fill="#164E86" transform="matrix(1.00, 0.00, -0.00, -1.00, 278.9, 331.0)">T</text><text xml:space="preserve" font-family="Helvetica-LightOblique,Helvetica" font-style="italic" font-size="25.3" fill="#164E86" transform="matrix(1.00, 0.00, -0.00, -1.00, 300.0, 328.1)">m</text></g></g><g><clipPath id="clip0x7f892074a960"><path d="M -4.4 254.8 L 52.9 254.8 L 52.9 319.8 L -4.4 319.8 Z M -4.4 254.8 "></path></clipPath><g clip-path="url(#clip0x7f892074a960)"><text xml:space="preserve" font-family="Helvetica-LightOblique,Helvetica" font-style="italic" font-size="38.0" fill="#164E86" transform="matrix(1.00, 0.00, -0.00, -1.00, 5.6, 273.1)">S</text><text xml:space="preserve" font-family="Helvetica-LightOblique,Helvetica" font-style="italic" font-size="25.3" fill="#164E86" transform="matrix(1.00, 0.00, -0.00, -1.00, 28.8, 270.2)">1</text></g></g><g><clipPath id="clip0x7f892074c7a0"><path d="M -4.4 198.9 L 52.9 198.9 L 52.9 263.9 L -4.4 263.9 Z M -4.4 198.9 "></path></clipPath><g clip-path="url(#clip0x7f892074c7a0)"><text xml:space="preserve" font-family="Helvetica-LightOblique,Helvetica" font-style="italic" font-size="38.0" fill="#164E86" transform="matrix(1.00, 0.00, -0.00, -1.00, 5.6, 217.1)">S</text><text xml:space="preserve" font-family="Helvetica-LightOblique,Helvetica" font-style="italic" font-size="25.3" fill="#164E86" transform="matrix(1.00, 0.00, -0.00, -1.00, 28.8, 214.2)">2</text></g></g><g><clipPath id="clip0x7f892074e5b0"><path d="M -4.4 86.3 L 52.9 86.3 L 52.9 151.3 L -4.4 151.3 Z M -4.4 86.3 "></path></clipPath><g clip-path="url(#clip0x7f892074e5b0)"><text xml:space="preserve" font-family="Helvetica-LightOblique,Helvetica" font-style="italic" font-size="38.0" fill="#164E86" transform="matrix(1.00, 0.00, -0.00, -1.00, 5.6, 104.5)">S</text><text xml:space="preserve" font-family="Helvetica-LightOblique,Helvetica" font-style="italic" font-size="25.3" fill="#164E86" transform="matrix(1.00, 0.00, -0.00, -1.00, 28.8, 101.6)">n</text></g></g><g><clipPath id="clip0x7f89207503f0"><path d="M 9.0 142.9 L 39.5 142.9 L 39.5 207.9 L 9.0 207.9 Z M 9.0 142.9 "></path></clipPath><g clip-path="url(#clip0x7f89207503f0)"><text xml:space="preserve" font-family="Helvetica-Light,Helvetica" font-size="38.0" fill="#164E86" transform="matrix(1.00, 0.00, -0.00, -1.00, 19.0, 161.2)">:</text></g></g></g></svg>