<?xml version="1.0" encoding="UTF-8" standalone="no"?><svg xmlns="http://www.w3.org/2000/svg" xmlns:xlink="http://www.w3.org/1999/xlink" clip-rule="evenodd" stroke-miterlimit="10" viewBox="0 0 1024 768"><desc>SVG generated by Keynote</desc><defs></defs><g transform="matrix(1.00, 0.00, -0.00, -1.00, 0.0, 768.0)"><path d="M 0.0 768.0 L 1024.0 768.0 L 1024.0 0.0 L 0.0 0.0 Z M 0.0 768.0 " fill="#FEFFFF"></path><text xml:space="preserve" font-family="Helvetica,Helvetica" font-size="72.0" fill="#000000" transform="matrix(1.00, 0.00, -0.00, -1.00, 118.5, 429.6)">C</text><text xml:space="preserve" font-family="Helvetica,Helvetica" font-size="72.0" fill="#000000" transform="matrix(1.00, 0.00, -0.00, -1.00, 170.5, 429.6)">a</text><text xml:space="preserve" font-family="Helvetica,Helvetica" font-size="72.0" fill="#000000" transform="matrix(1.00, 0.00, -0.00, -1.00, 210.6, 429.6)">n</text><text xml:space="preserve" font-family="Helvetica,Helvetica" font-size="72.0" fill="#000000" transform="matrix(1.00, 0.00, -0.00, -1.00, 250.6, 429.6)">d</text><text xml:space="preserve" font-family="Helvetica,Helvetica" font-size="72.0" fill="#000000" transform="matrix(1.00, 0.00, -0.00, -1.00, 290.7, 429.6)">i</text><text xml:space="preserve" font-family="Helvetica,Helvetica" font-size="72.0" fill="#000000" transform="matrix(1.00, 0.00, -0.00, -1.00, 306.7, 429.6)">d</text><text xml:space="preserve" font-family="Helvetica,Helvetica" font-size="72.0" fill="#000000" transform="matrix(1.00, 0.00, -0.00, -1.00, 346.7, 429.6)">a</text><text xml:space="preserve" font-family="Helvetica,Helvetica" font-size="72.0" fill="#000000" transform="matrix(1.00, 0.00, -0.00, -1.00, 386.8, 429.6)">t</text><text xml:space="preserve" font-family="Helvetica,Helvetica" font-size="72.0" fill="#000000" transform="matrix(1.00, 0.00, -0.00, -1.00, 406.8, 429.6)">e</text><text xml:space="preserve" font-family="Helvetica,Helvetica" font-size="72.0" fill="#000000" transform="matrix(1.00, 0.00, -0.00, -1.00, 446.9, 429.6)">S</text><text xml:space="preserve" font-family="Helvetica,Helvetica" font-size="72.0" fill="#000000" transform="matrix(1.00, 0.00, -0.00, -1.00, 494.9, 429.6)">u</text><text xml:space="preserve" font-family="Helvetica,Helvetica" font-size="72.0" fill="#000000" transform="matrix(1.00, 0.00, -0.00, -1.00, 534.9, 429.6)">m</text><text xml:space="preserve" font-family="Helvetica,Helvetica" font-size="72.0" fill="#000000" transform="matrix(1.00, 0.00, -0.00, -1.00, 594.9, 429.6)">m</text><text xml:space="preserve" font-family="Helvetica,Helvetica" font-size="72.0" fill="#000000" transform="matrix(1.00, 0.00, -0.00, -1.00, 654.9, 429.6)">a</text><text xml:space="preserve" font-family="Helvetica,Helvetica" font-size="72.0" fill="#000000" transform="matrix(1.00, 0.00, -0.00, -1.00, 694.9, 429.6)">r</text><text xml:space="preserve" font-family="Helvetica,Helvetica" font-size="72.0" fill="#000000" transform="matrix(1.00, 0.00, -0.00, -1.00, 718.9, 429.6)">y</text><text xml:space="preserve" font-family="Helvetica,Helvetica" font-size="72.0" fill="#000000" transform="matrix(1.00, 0.00, -0.00, -1.00, 749.6, 429.6)">.</text><text xml:space="preserve" font-family="Helvetica,Helvetica" font-size="72.0" fill="#000000" transform="matrix(1.00, 0.00, -0.00, -1.00, 769.6, 429.6)">c</text><text xml:space="preserve" font-family="Helvetica,Helvetica" font-size="72.0" fill="#000000" transform="matrix(1.00, 0.00, -0.00, -1.00, 805.6, 429.6)">o</text><text xml:space="preserve" font-family="Helvetica,Helvetica" font-size="72.0" fill="#000000" transform="matrix(1.00, 0.00, -0.00, -1.00, 845.7, 429.6)">m</text><text xml:space="preserve" font-family="Helvetica-Light,Helvetica" font-size="32.8" fill="#000000" transform="matrix(1.00, 0.00, -0.00, -1.00, 360.6, 304.5)">Q</text><text xml:space="preserve" font-family="Helvetica-Light,Helvetica" font-size="32.8" fill="#000000" transform="matrix(1.00, 0.00, -0.00, -1.00, 386.1, 304.5)">u</text><text xml:space="preserve" font-family="Helvetica-Light,Helvetica" font-size="32.8" fill="#000000" transform="matrix(1.00, 0.00, -0.00, -1.00, 404.3, 304.5)">i</text><text xml:space="preserve" font-family="Helvetica-Light,Helvetica" font-size="32.8" fill="#000000" transform="matrix(1.00, 0.00, -0.00, -1.00, 411.6, 304.5)">c</text><text xml:space="preserve" font-family="Helvetica-Light,Helvetica" font-size="32.8" fill="#000000" transform="matrix(1.00, 0.00, -0.00, -1.00, 429.8, 304.5)">k</text><text xml:space="preserve" font-family="Helvetica-Light,Helvetica" font-size="32.8" fill="#000000" transform="matrix(1.00, 0.00, -0.00, -1.00, 446.2, 304.5)"> </text><text xml:space="preserve" font-family="Helvetica-Light,Helvetica" font-size="32.8" fill="#000000" transform="matrix(1.00, 0.00, -0.00, -1.00, 455.3, 304.5)">i</text><text xml:space="preserve" font-family="Helvetica-Light,Helvetica" font-size="32.8" fill="#000000" transform="matrix(1.00, 0.00, -0.00, -1.00, 462.5, 304.5)">n</text><text xml:space="preserve" font-family="Helvetica-Light,Helvetica" font-size="32.8" fill="#000000" transform="matrix(1.00, 0.00, -0.00, -1.00, 480.7, 304.5)">f</text><text xml:space="preserve" font-family="Helvetica-Light,Helvetica" font-size="32.8" fill="#000000" transform="matrix(1.00, 0.00, -0.00, -1.00, 489.9, 304.5)">o</text><text xml:space="preserve" font-family="Helvetica-Light,Helvetica" font-size="32.8" fill="#000000" transform="matrix(1.00, 0.00, -0.00, -1.00, 508.1, 304.5)">r</text><text xml:space="preserve" font-family="Helvetica-Light,Helvetica" font-size="32.8" fill="#000000" transform="matrix(1.00, 0.00, -0.00, -1.00, 519.6, 304.5)">m</text><text xml:space="preserve" font-family="Helvetica-Light,Helvetica" font-size="32.8" fill="#000000" transform="matrix(1.00, 0.00, -0.00, -1.00, 546.9, 304.5)">a</text><text xml:space="preserve" font-family="Helvetica-Light,Helvetica" font-size="32.8" fill="#000000" transform="matrix(1.00, 0.00, -0.00, -1.00, 565.1, 304.5)">t</text><text xml:space="preserve" font-family="Helvetica-Light,Helvetica" font-size="32.8" fill="#000000" transform="matrix(1.00, 0.00, -0.00, -1.00, 574.2, 304.5)">i</text><text xml:space="preserve" font-family="Helvetica-Light,Helvetica" font-size="32.8" fill="#000000" transform="matrix(1.00, 0.00, -0.00, -1.00, 581.5, 304.5)">o</text><text xml:space="preserve" font-family="Helvetica-Light,Helvetica" font-size="32.8" fill="#000000" transform="matrix(1.00, 0.00, -0.00, -1.00, 599.7, 304.5)">n</text><text xml:space="preserve" font-family="Helvetica-Light,Helvetica" font-size="32.8" fill="#000000" transform="matrix(1.00, 0.00, -0.00, -1.00, 617.9, 304.5)"> </text><text xml:space="preserve" font-family="Helvetica-Light,Helvetica" font-size="32.8" fill="#000000" transform="matrix(1.00, 0.00, -0.00, -1.00, 627.0, 304.5)">o</text><text xml:space="preserve" font-family="Helvetica-Light,Helvetica" font-size="32.8" fill="#000000" transform="matrix(1.00, 0.00, -0.00, -1.00, 645.2, 304.5)">n</text><text xml:space="preserve" font-family="Helvetica-Light,Helvetica" font-size="32.8" fill="#000000" transform="matrix(1.00, 0.00, -0.00, -1.00, 663.4, 304.5)"> </text><text xml:space="preserve" font-family="Helvetica-Light,Helvetica" font-size="32.8" fill="#000000" transform="matrix(1.00, 0.00, -0.00, -1.00, 315.7, 264.5)">C</text><text xml:space="preserve" font-family="Helvetica-Light,Helvetica" font-size="32.8" fill="#000000" transform="matrix(1.00, 0.00, -0.00, -1.00, 339.3, 264.5)">o</text><text xml:space="preserve" font-family="Helvetica-Light,Helvetica" font-size="32.8" fill="#000000" transform="matrix(1.00, 0.00, -0.00, -1.00, 357.5, 264.5)">n</text><text xml:space="preserve" font-family="Helvetica-Light,Helvetica" font-size="32.8" fill="#000000" transform="matrix(1.00, 0.00, -0.00, -1.00, 375.8, 264.5)">g</text><text xml:space="preserve" font-family="Helvetica-Light,Helvetica" font-size="32.8" fill="#000000" transform="matrix(1.00, 0.00, -0.00, -1.00, 395.8, 264.5)">r</text><text xml:space="preserve" font-family="Helvetica-Light,Helvetica" font-size="32.8" fill="#000000" transform="matrix(1.00, 0.00, -0.00, -1.00, 406.1, 264.5)">e</text><text xml:space="preserve" font-family="Helvetica-Light,Helvetica" font-size="32.8" fill="#000000" transform="matrix(1.00, 0.00, -0.00, -1.00, 424.3, 264.5)">s</text><text xml:space="preserve" font-family="Helvetica-Light,Helvetica" font-size="32.8" fill="#000000" transform="matrix(1.00, 0.00, -0.00, -1.00, 440.7, 264.5)">s</text><text xml:space="preserve" font-family="Helvetica-Light,Helvetica" font-size="32.8" fill="#000000" transform="matrix(1.00, 0.00, -0.00, -1.00, 457.1, 264.5)">i</text><text xml:space="preserve" font-family="Helvetica-Light,Helvetica" font-size="32.8" fill="#000000" transform="matrix(1.00, 0.00, -0.00, -1.00, 464.3, 264.5)">o</text><text xml:space="preserve" font-family="Helvetica-Light,Helvetica" font-size="32.8" fill="#000000" transform="matrix(1.00, 0.00, -0.00, -1.00, 482.5, 264.5)">n</text><text xml:space="preserve" font-family="Helvetica-Light,Helvetica" font-size="32.8" fill="#000000" transform="matrix(1.00, 0.00, -0.00, -1.00, 500.8, 264.5)">a</text><text xml:space="preserve" font-family="Helvetica-Light,Helvetica" font-size="32.8" fill="#000000" transform="matrix(1.00, 0.00, -0.00, -1.00, 519.0, 264.5)">l</text><text xml:space="preserve" font-family="Helvetica-Light,Helvetica" font-size="32.8" fill="#000000" transform="matrix(1.00, 0.00, -0.00, -1.00, 526.3, 264.5)"> </text><text xml:space="preserve" font-family="Helvetica-Light,Helvetica" font-size="32.8" fill="#000000" transform="matrix(1.00, 0.00, -0.00, -1.00, 535.4, 264.5)">c</text><text xml:space="preserve" font-family="Helvetica-Light,Helvetica" font-size="32.8" fill="#000000" transform="matrix(1.00, 0.00, -0.00, -1.00, 553.6, 264.5)">a</text><text xml:space="preserve" font-family="Helvetica-Light,Helvetica" font-size="32.8" fill="#000000" transform="matrix(1.00, 0.00, -0.00, -1.00, 571.8, 264.5)">n</text><text xml:space="preserve" font-family="Helvetica-Light,Helvetica" font-size="32.8" fill="#000000" transform="matrix(1.00, 0.00, -0.00, -1.00, 590.0, 264.5)">d</text><text xml:space="preserve" font-family="Helvetica-Light,Helvetica" font-size="32.8" fill="#000000" transform="matrix(1.00, 0.00, -0.00, -1.00, 610.0, 264.5)">i</text><text xml:space="preserve" font-family="Helvetica-Light,Helvetica" font-size="32.8" fill="#000000" transform="matrix(1.00, 0.00, -0.00, -1.00, 617.3, 264.5)">d</text><text xml:space="preserve" font-family="Helvetica-Light,Helvetica" font-size="32.8" fill="#000000" transform="matrix(1.00, 0.00, -0.00, -1.00, 637.3, 264.5)">a</text><text xml:space="preserve" font-family="Helvetica-Light,Helvetica" font-size="32.8" fill="#000000" transform="matrix(1.00, 0.00, -0.00, -1.00, 655.5, 264.5)">t</text><text xml:space="preserve" font-family="Helvetica-Light,Helvetica" font-size="32.8" fill="#000000" transform="matrix(1.00, 0.00, -0.00, -1.00, 664.6, 264.5)">e</text><text xml:space="preserve" font-family="Helvetica-Light,Helvetica" font-size="32.8" fill="#000000" transform="matrix(1.00, 0.00, -0.00, -1.00, 682.8, 264.5)">s</text><text xml:space="preserve" font-family="Helvetica-Light,Helvetica" font-size="32.8" fill="#000000" transform="matrix(1.00, 0.00, -0.00, -1.00, 699.2, 264.5)">.</text><text xml:space="preserve" font-family="Helvetica-Light,Helvetica" font-size="34.2" fill="#000000" transform="matrix(1.00, 0.00, -0.00, -1.00, 364.4, 113.7)">T</text><text xml:space="preserve" font-family="Helvetica-Light,Helvetica" font-size="34.2" fill="#000000" transform="matrix(1.00, 0.00, -0.00, -1.00, 379.6, 113.7)">a</text><text xml:space="preserve" font-family="Helvetica-Light,Helvetica" font-size="34.2" fill="#000000" transform="matrix(1.00, 0.00, -0.00, -1.00, 398.6, 113.7)">r</text><text xml:space="preserve" font-family="Helvetica-Light,Helvetica" font-size="34.2" fill="#000000" transform="matrix(1.00, 0.00, -0.00, -1.00, 410.0, 113.7)">a</text><text xml:space="preserve" font-family="Helvetica-Light,Helvetica" font-size="34.2" fill="#000000" transform="matrix(1.00, 0.00, -0.00, -1.00, 429.0, 113.7)"> </text><text xml:space="preserve" font-family="Helvetica-Light,Helvetica" font-size="34.2" fill="#000000" transform="matrix(1.00, 0.00, -0.00, -1.00, 438.6, 113.7)">L</text><text xml:space="preserve" font-family="Helvetica-Light,Helvetica" font-size="34.2" fill="#000000" transform="matrix(1.00, 0.00, -0.00, -1.00, 456.3, 113.7)">y</text><text xml:space="preserve" font-family="Helvetica-Light,Helvetica" font-size="34.2" fill="#000000" transform="matrix(1.00, 0.00, -0.00, -1.00, 473.4, 113.7)">d</text><text xml:space="preserve" font-family="Helvetica-Light,Helvetica" font-size="34.2" fill="#000000" transform="matrix(1.00, 0.00, -0.00, -1.00, 494.3, 113.7)">i</text><text xml:space="preserve" font-family="Helvetica-Light,Helvetica" font-size="34.2" fill="#000000" transform="matrix(1.00, 0.00, -0.00, -1.00, 501.9, 113.7)">a</text><text xml:space="preserve" font-family="Helvetica-Light,Helvetica" font-size="34.2" fill="#000000" transform="matrix(1.00, 0.00, -0.00, -1.00, 520.9, 113.7)">r</text><text xml:space="preserve" font-family="Helvetica-Light,Helvetica" font-size="34.2" fill="#000000" transform="matrix(1.00, 0.00, -0.00, -1.00, 531.7, 113.7)">d</text><text xml:space="preserve" font-family="Helvetica-Light,Helvetica" font-size="34.2" fill="#000000" transform="matrix(1.00, 0.00, -0.00, -1.00, 552.6, 113.7)">-</text><text xml:space="preserve" font-family="Helvetica-Light,Helvetica" font-size="34.2" fill="#000000" transform="matrix(1.00, 0.00, -0.00, -1.00, 564.0, 113.7)">M</text><text xml:space="preserve" font-family="Helvetica-Light,Helvetica" font-size="34.2" fill="#000000" transform="matrix(1.00, 0.00, -0.00, -1.00, 592.5, 113.7)">a</text><text xml:space="preserve" font-family="Helvetica-Light,Helvetica" font-size="34.2" fill="#000000" transform="matrix(1.00, 0.00, -0.00, -1.00, 611.5, 113.7)">r</text><text xml:space="preserve" font-family="Helvetica-Light,Helvetica" font-size="34.2" fill="#000000" transform="matrix(1.00, 0.00, -0.00, -1.00, 623.5, 113.7)">t</text><text xml:space="preserve" font-family="Helvetica-Light,Helvetica" font-size="34.2" fill="#000000" transform="matrix(1.00, 0.00, -0.00, -1.00, 633.0, 113.7)">i</text><text xml:space="preserve" font-family="Helvetica-Light,Helvetica" font-size="34.2" fill="#000000" transform="matrix(1.00, 0.00, -0.00, -1.00, 640.6, 113.7)">n</text></g></svg>