<?xml version="1.0" encoding="UTF-8" standalone="no"?><svg xmlns="http://www.w3.org/2000/svg" xmlns:xlink="http://www.w3.org/1999/xlink" clip-rule="evenodd" stroke-miterlimit="10" viewBox="0 0 1024 768"><desc>SVG generated by Keynote</desc><defs></defs><g transform="matrix(1.00, 0.00, -0.00, -1.00, 0.0, 768.0)"><path d="M 0.0 768.0 L 1024.0 768.0 L 1024.0 0.0 L 0.0 0.0 Z M 0.0 768.0 " fill="#FEFFFF"></path><image xlink:href="B65A046E428B31D73A40C0766E4E5020.png" width="1280.00" height="791.00" transform="matrix(0.49, 0.00, -0.00, -0.49, 201.4, 513.8)"></image><g><clipPath id="clip0x7f891ff2d090"><path d="M 213.5 321.7 L 783.3 321.7 L 783.3 549.3 L 213.5 549.3 Z M 213.5 321.7 "></path></clipPath><g clip-path="url(#clip0x7f891ff2d090)"><image xlink:href="A9C1EFB62BE6C0652A1A3AB6ACE11B60.png" width="568.00" height="226.00" transform="matrix(1.00, 0.00, -0.00, -1.00, 214.5, 548.3)"></image><path d="M 6.7 189.8 L 7.7 187.3 C 56.4 78.5 162.7 5.6 283.0 0.3 C 386.7 -4.3 485.9 43.1 547.5 126.6 " fill="none" stroke="#000000" stroke-width="5.00" transform="matrix(1.00, 0.00, 0.00, -1.00, 224.8, 537.8)"></path><path d="M 223.0 354.2 L 224.7 331.4 L 241.9 346.4 Z M 223.0 354.2 " fill="#000000"></path></g></g><g><clipPath id="clip0x7f89202d9370"><path d="M 487.5 489.5 L 556.5 489.5 L 556.5 550.5 L 487.5 550.5 Z M 487.5 489.5 "></path></clipPath><g clip-path="url(#clip0x7f89202d9370)"><text xml:space="preserve" font-family="Helvetica-Light,Helvetica" font-size="36.0" fill="#000000" transform="matrix(1.00, 0.00, -0.00, -1.00, 497.0, 506.8)">m</text><text xml:space="preserve" font-family="Helvetica-Light,Helvetica" font-size="36.0" fill="#000000" transform="matrix(1.00, 0.00, -0.00, -1.00, 527.0, 506.8)">e</text></g></g></g></svg>