<?xml version="1.0" encoding="UTF-8" standalone="no"?><svg xmlns="http://www.w3.org/2000/svg" xmlns:xlink="http://www.w3.org/1999/xlink" clip-rule="evenodd" stroke-miterlimit="10" viewBox="0 0 307 105"><desc>SVG generated by Keynote</desc><defs></defs><g transform="matrix(1.00, 0.00, -0.00, -1.00, 0.0, 105.0)"><text xml:space="preserve" font-family="Helvetica-Light,Helvetica" font-size="30.0" fill="#164E86" transform="matrix(1.00, 0.00, -0.00, -1.00, 1.0, 80.4)">1</text><text xml:space="preserve" font-family="Helvetica-Light,Helvetica" font-size="30.0" fill="#164E86" transform="matrix(1.00, 0.00, -0.00, -1.00, 17.6, 80.4)">)</text><text xml:space="preserve" font-family="Helvetica-Light,Helvetica" font-size="30.0" fill="#164E86" transform="matrix(1.00, 0.00, -0.00, -1.00, 27.6, 80.4)"> </text><text xml:space="preserve" font-family="Helvetica-Light,Helvetica" font-size="30.0" fill="#164E86" transform="matrix(1.00, 0.00, -0.00, -1.00, 36.0, 80.4)">c</text><text xml:space="preserve" font-family="Helvetica-Light,Helvetica" font-size="30.0" fill="#164E86" transform="matrix(1.00, 0.00, -0.00, -1.00, 52.6, 80.4)">l</text><text xml:space="preserve" font-family="Helvetica-Light,Helvetica" font-size="30.0" fill="#164E86" transform="matrix(1.00, 0.00, -0.00, -1.00, 59.3, 80.4)">i</text><text xml:space="preserve" font-family="Helvetica-Light,Helvetica" font-size="30.0" fill="#164E86" transform="matrix(1.00, 0.00, -0.00, -1.00, 66.0, 80.4)">m</text><text xml:space="preserve" font-family="Helvetica-Light,Helvetica" font-size="30.0" fill="#164E86" transform="matrix(1.00, 0.00, -0.00, -1.00, 91.0, 80.4)">a</text><text xml:space="preserve" font-family="Helvetica-Light,Helvetica" font-size="30.0" fill="#164E86" transform="matrix(1.00, 0.00, -0.00, -1.00, 107.6, 80.4)">t</text><text xml:space="preserve" font-family="Helvetica-Light,Helvetica" font-size="30.0" fill="#164E86" transform="matrix(1.00, 0.00, -0.00, -1.00, 116.0, 80.4)">e</text><text xml:space="preserve" font-family="Helvetica-Light,Helvetica" font-size="30.0" fill="#164E86" transform="matrix(1.00, 0.00, -0.00, -1.00, 132.7, 80.4)"> </text><text xml:space="preserve" font-family="Helvetica-Light,Helvetica" font-size="30.0" fill="#164E86" transform="matrix(1.00, 0.00, -0.00, -1.00, 141.0, 80.4)">c</text><text xml:space="preserve" font-family="Helvetica-Light,Helvetica" font-size="30.0" fill="#164E86" transform="matrix(1.00, 0.00, -0.00, -1.00, 157.7, 80.4)">h</text><text xml:space="preserve" font-family="Helvetica-Light,Helvetica" font-size="30.0" fill="#164E86" transform="matrix(1.00, 0.00, -0.00, -1.00, 174.4, 80.4)">a</text><text xml:space="preserve" font-family="Helvetica-Light,Helvetica" font-size="30.0" fill="#164E86" transform="matrix(1.00, 0.00, -0.00, -1.00, 191.0, 80.4)">n</text><text xml:space="preserve" font-family="Helvetica-Light,Helvetica" font-size="30.0" fill="#164E86" transform="matrix(1.00, 0.00, -0.00, -1.00, 207.7, 80.4)">g</text><text xml:space="preserve" font-family="Helvetica-Light,Helvetica" font-size="30.0" fill="#164E86" transform="matrix(1.00, 0.00, -0.00, -1.00, 226.0, 80.4)">e</text><text xml:space="preserve" font-family="Helvetica-Light,Helvetica" font-size="30.0" fill="#164E86" transform="matrix(1.00, 0.00, -0.00, -1.00, 242.7, 80.4)"> </text><text xml:space="preserve" font-family="Helvetica-Light,Helvetica" font-size="30.0" fill="#164E86" transform="matrix(1.00, 0.00, -0.00, -1.00, 1.0, 44.4)">2</text><text xml:space="preserve" font-family="Helvetica-Light,Helvetica" font-size="30.0" fill="#164E86" transform="matrix(1.00, 0.00, -0.00, -1.00, 17.6, 44.4)">)</text><text xml:space="preserve" font-family="Helvetica-Light,Helvetica" font-size="30.0" fill="#164E86" transform="matrix(1.00, 0.00, -0.00, -1.00, 27.6, 44.4)"> </text><text xml:space="preserve" font-family="Helvetica-Light,Helvetica" font-size="30.0" fill="#164E86" transform="matrix(1.00, 0.00, -0.00, -1.00, 36.0, 44.4)">g</text><text xml:space="preserve" font-family="Helvetica-Light,Helvetica" font-size="30.0" fill="#164E86" transform="matrix(1.00, 0.00, -0.00, -1.00, 54.3, 44.4)">l</text><text xml:space="preserve" font-family="Helvetica-Light,Helvetica" font-size="30.0" fill="#164E86" transform="matrix(1.00, 0.00, -0.00, -1.00, 61.0, 44.4)">o</text><text xml:space="preserve" font-family="Helvetica-Light,Helvetica" font-size="30.0" fill="#164E86" transform="matrix(1.00, 0.00, -0.00, -1.00, 77.6, 44.4)">b</text><text xml:space="preserve" font-family="Helvetica-Light,Helvetica" font-size="30.0" fill="#164E86" transform="matrix(1.00, 0.00, -0.00, -1.00, 96.0, 44.4)">a</text><text xml:space="preserve" font-family="Helvetica-Light,Helvetica" font-size="30.0" fill="#164E86" transform="matrix(1.00, 0.00, -0.00, -1.00, 112.6, 44.4)">l</text><text xml:space="preserve" font-family="Helvetica-Light,Helvetica" font-size="30.0" fill="#164E86" transform="matrix(1.00, 0.00, -0.00, -1.00, 119.3, 44.4)"> </text><text xml:space="preserve" font-family="Helvetica-Light,Helvetica" font-size="30.0" fill="#164E86" transform="matrix(1.00, 0.00, -0.00, -1.00, 127.6, 44.4)">t</text><text xml:space="preserve" font-family="Helvetica-Light,Helvetica" font-size="30.0" fill="#164E86" transform="matrix(1.00, 0.00, -0.00, -1.00, 136.0, 44.4)">e</text><text xml:space="preserve" font-family="Helvetica-Light,Helvetica" font-size="30.0" fill="#164E86" transform="matrix(1.00, 0.00, -0.00, -1.00, 152.7, 44.4)">m</text><text xml:space="preserve" font-family="Helvetica-Light,Helvetica" font-size="30.0" fill="#164E86" transform="matrix(1.00, 0.00, -0.00, -1.00, 177.7, 44.4)">p</text><text xml:space="preserve" font-family="Helvetica-Light,Helvetica" font-size="30.0" fill="#164E86" transform="matrix(1.00, 0.00, -0.00, -1.00, 196.0, 44.4)">e</text><text xml:space="preserve" font-family="Helvetica-Light,Helvetica" font-size="30.0" fill="#164E86" transform="matrix(1.00, 0.00, -0.00, -1.00, 212.7, 44.4)">r</text><text xml:space="preserve" font-family="Helvetica-Light,Helvetica" font-size="30.0" fill="#164E86" transform="matrix(1.00, 0.00, -0.00, -1.00, 222.7, 44.4)">a</text><text xml:space="preserve" font-family="Helvetica-Light,Helvetica" font-size="30.0" fill="#164E86" transform="matrix(1.00, 0.00, -0.00, -1.00, 239.3, 44.4)">t</text><text xml:space="preserve" font-family="Helvetica-Light,Helvetica" font-size="30.0" fill="#164E86" transform="matrix(1.00, 0.00, -0.00, -1.00, 247.7, 44.4)">u</text><text xml:space="preserve" font-family="Helvetica-Light,Helvetica" font-size="30.0" fill="#164E86" transform="matrix(1.00, 0.00, -0.00, -1.00, 264.4, 44.4)">r</text><text xml:space="preserve" font-family="Helvetica-Light,Helvetica" font-size="30.0" fill="#164E86" transform="matrix(1.00, 0.00, -0.00, -1.00, 273.8, 44.4)">e</text><text xml:space="preserve" font-family="Helvetica-Light,Helvetica" font-size="30.0" fill="#164E86" transform="matrix(1.00, 0.00, -0.00, -1.00, 290.5, 44.4)">s</text><text xml:space="preserve" font-family="Helvetica-Light,Helvetica" font-size="30.0" fill="#164E86" transform="matrix(1.00, 0.00, -0.00, -1.00, 305.5, 44.4)"> </text><text xml:space="preserve" font-family="Helvetica-Light,Helvetica" font-size="30.0" fill="#164E86" transform="matrix(1.00, 0.00, -0.00, -1.00, 1.0, 8.4)">3</text><text xml:space="preserve" font-family="Helvetica-Light,Helvetica" font-size="30.0" fill="#164E86" transform="matrix(1.00, 0.00, -0.00, -1.00, 17.6, 8.4)">)</text><text xml:space="preserve" font-family="Helvetica-Light,Helvetica" font-size="30.0" fill="#164E86" transform="matrix(1.00, 0.00, -0.00, -1.00, 27.6, 8.4)"> </text><text xml:space="preserve" font-family="Helvetica-Light,Helvetica" font-size="30.0" fill="#164E86" transform="matrix(1.00, 0.00, -0.00, -1.00, 36.0, 8.4)">r</text><text xml:space="preserve" font-family="Helvetica-Light,Helvetica" font-size="30.0" fill="#164E86" transform="matrix(1.00, 0.00, -0.00, -1.00, 46.0, 8.4)">i</text><text xml:space="preserve" font-family="Helvetica-Light,Helvetica" font-size="30.0" fill="#164E86" transform="matrix(1.00, 0.00, -0.00, -1.00, 52.6, 8.4)">s</text><text xml:space="preserve" font-family="Helvetica-Light,Helvetica" font-size="30.0" fill="#164E86" transform="matrix(1.00, 0.00, -0.00, -1.00, 67.6, 8.4)">i</text><text xml:space="preserve" font-family="Helvetica-Light,Helvetica" font-size="30.0" fill="#164E86" transform="matrix(1.00, 0.00, -0.00, -1.00, 74.3, 8.4)">n</text><text xml:space="preserve" font-family="Helvetica-Light,Helvetica" font-size="30.0" fill="#164E86" transform="matrix(1.00, 0.00, -0.00, -1.00, 91.0, 8.4)">g</text><text xml:space="preserve" font-family="Helvetica-Light,Helvetica" font-size="30.0" fill="#164E86" transform="matrix(1.00, 0.00, -0.00, -1.00, 109.3, 8.4)"> </text><text xml:space="preserve" font-family="Helvetica-Light,Helvetica" font-size="30.0" fill="#164E86" transform="matrix(1.00, 0.00, -0.00, -1.00, 117.6, 8.4)">g</text><text xml:space="preserve" font-family="Helvetica-Light,Helvetica" font-size="30.0" fill="#164E86" transform="matrix(1.00, 0.00, -0.00, -1.00, 136.0, 8.4)">l</text><text xml:space="preserve" font-family="Helvetica-Light,Helvetica" font-size="30.0" fill="#164E86" transform="matrix(1.00, 0.00, -0.00, -1.00, 142.6, 8.4)">o</text><text xml:space="preserve" font-family="Helvetica-Light,Helvetica" font-size="30.0" fill="#164E86" transform="matrix(1.00, 0.00, -0.00, -1.00, 159.3, 8.4)">b</text><text xml:space="preserve" font-family="Helvetica-Light,Helvetica" font-size="30.0" fill="#164E86" transform="matrix(1.00, 0.00, -0.00, -1.00, 177.6, 8.4)">a</text><text xml:space="preserve" font-family="Helvetica-Light,Helvetica" font-size="30.0" fill="#164E86" transform="matrix(1.00, 0.00, -0.00, -1.00, 194.3, 8.4)">l</text></g></svg>