<?xml version="1.0" encoding="UTF-8" standalone="no"?><svg xmlns="http://www.w3.org/2000/svg" xmlns:xlink="http://www.w3.org/1999/xlink" clip-rule="evenodd" stroke-miterlimit="10" viewBox="0 0 821 32"><desc>SVG generated by Keynote</desc><defs></defs><g transform="matrix(1.00, 0.00, -0.00, -1.00, 0.0, 32.0)"><text xml:space="preserve" font-family="Helvetica-Light,Helvetica" font-size="30.0" fill="#164E86" transform="matrix(1.00, 0.00, -0.00, -1.00, -0.6, 8.3)">“</text><text xml:space="preserve" font-family="Helvetica-Light,Helvetica" font-size="30.0" fill="#164E86" transform="matrix(1.00, 0.00, -0.00, -1.00, 11.0, 8.3)">…</text><text xml:space="preserve" font-family="Helvetica-Light,Helvetica" font-size="30.0" fill="#164E86" transform="matrix(1.00, 0.00, -0.00, -1.00, 41.0, 8.3)">r</text><text xml:space="preserve" font-family="Helvetica-Light,Helvetica" font-size="30.0" fill="#164E86" transform="matrix(1.00, 0.00, -0.00, -1.00, 51.0, 8.3)">i</text><text xml:space="preserve" font-family="Helvetica-Light,Helvetica" font-size="30.0" fill="#164E86" transform="matrix(1.00, 0.00, -0.00, -1.00, 57.7, 8.3)">s</text><text xml:space="preserve" font-family="Helvetica-Light,Helvetica" font-size="30.0" fill="#164E86" transform="matrix(1.00, 0.00, -0.00, -1.00, 72.7, 8.3)">i</text><text xml:space="preserve" font-family="Helvetica-Light,Helvetica" font-size="30.0" fill="#164E86" transform="matrix(1.00, 0.00, -0.00, -1.00, 79.3, 8.3)">n</text><text xml:space="preserve" font-family="Helvetica-Light,Helvetica" font-size="30.0" fill="#164E86" transform="matrix(1.00, 0.00, -0.00, -1.00, 96.0, 8.3)">g</text><text xml:space="preserve" font-family="Helvetica-Light,Helvetica" font-size="30.0" fill="#164E86" transform="matrix(1.00, 0.00, -0.00, -1.00, 114.3, 8.3)"> </text><text xml:space="preserve" font-family="Helvetica-Light,Helvetica" font-size="30.0" fill="#164E86" transform="matrix(1.00, 0.00, -0.00, -1.00, 122.7, 8.3)">g</text><text xml:space="preserve" font-family="Helvetica-Light,Helvetica" font-size="30.0" fill="#164E86" transform="matrix(1.00, 0.00, -0.00, -1.00, 141.0, 8.3)">l</text><text xml:space="preserve" font-family="Helvetica-Light,Helvetica" font-size="30.0" fill="#164E86" transform="matrix(1.00, 0.00, -0.00, -1.00, 147.7, 8.3)">o</text><text xml:space="preserve" font-family="Helvetica-Light,Helvetica" font-size="30.0" fill="#164E86" transform="matrix(1.00, 0.00, -0.00, -1.00, 164.4, 8.3)">b</text><text xml:space="preserve" font-family="Helvetica-Light,Helvetica" font-size="30.0" fill="#164E86" transform="matrix(1.00, 0.00, -0.00, -1.00, 182.7, 8.3)">a</text><text xml:space="preserve" font-family="Helvetica-Light,Helvetica" font-size="30.0" fill="#164E86" transform="matrix(1.00, 0.00, -0.00, -1.00, 199.4, 8.3)">l</text><text xml:space="preserve" font-family="Helvetica-Light,Helvetica" font-size="30.0" fill="#164E86" transform="matrix(1.00, 0.00, -0.00, -1.00, 206.0, 8.3)"> </text><text xml:space="preserve" font-family="Helvetica-Light,Helvetica" font-size="30.0" fill="#164E86" transform="matrix(1.00, 0.00, -0.00, -1.00, 214.4, 8.3)">t</text><text xml:space="preserve" font-family="Helvetica-Light,Helvetica" font-size="30.0" fill="#164E86" transform="matrix(1.00, 0.00, -0.00, -1.00, 222.7, 8.3)">e</text><text xml:space="preserve" font-family="Helvetica-Light,Helvetica" font-size="30.0" fill="#164E86" transform="matrix(1.00, 0.00, -0.00, -1.00, 239.4, 8.3)">m</text><text xml:space="preserve" font-family="Helvetica-Light,Helvetica" font-size="30.0" fill="#164E86" transform="matrix(1.00, 0.00, -0.00, -1.00, 264.4, 8.3)">p</text><text xml:space="preserve" font-family="Helvetica-Light,Helvetica" font-size="30.0" fill="#164E86" transform="matrix(1.00, 0.00, -0.00, -1.00, 282.7, 8.3)">e</text><text xml:space="preserve" font-family="Helvetica-Light,Helvetica" font-size="30.0" fill="#164E86" transform="matrix(1.00, 0.00, -0.00, -1.00, 299.4, 8.3)">r</text><text xml:space="preserve" font-family="Helvetica-Light,Helvetica" font-size="30.0" fill="#164E86" transform="matrix(1.00, 0.00, -0.00, -1.00, 309.4, 8.3)">a</text><text xml:space="preserve" font-family="Helvetica-Light,Helvetica" font-size="30.0" fill="#164E86" transform="matrix(1.00, 0.00, -0.00, -1.00, 326.1, 8.3)">t</text><text xml:space="preserve" font-family="Helvetica-Light,Helvetica" font-size="30.0" fill="#164E86" transform="matrix(1.00, 0.00, -0.00, -1.00, 334.4, 8.3)">u</text><text xml:space="preserve" font-family="Helvetica-Light,Helvetica" font-size="30.0" fill="#164E86" transform="matrix(1.00, 0.00, -0.00, -1.00, 351.1, 8.3)">r</text><text xml:space="preserve" font-family="Helvetica-Light,Helvetica" font-size="30.0" fill="#164E86" transform="matrix(1.00, 0.00, -0.00, -1.00, 360.5, 8.3)">e</text><text xml:space="preserve" font-family="Helvetica-Light,Helvetica" font-size="30.0" fill="#164E86" transform="matrix(1.00, 0.00, -0.00, -1.00, 377.2, 8.3)">s</text><text xml:space="preserve" font-family="Helvetica-Light,Helvetica" font-size="30.0" fill="#164E86" transform="matrix(1.00, 0.00, -0.00, -1.00, 392.2, 8.3)"> </text><text xml:space="preserve" font-family="Helvetica-Light,Helvetica" font-size="30.0" fill="#164E86" transform="matrix(1.00, 0.00, -0.00, -1.00, 400.5, 8.3)">a</text><text xml:space="preserve" font-family="Helvetica-Light,Helvetica" font-size="30.0" fill="#164E86" transform="matrix(1.00, 0.00, -0.00, -1.00, 417.2, 8.3)">n</text><text xml:space="preserve" font-family="Helvetica-Light,Helvetica" font-size="30.0" fill="#164E86" transform="matrix(1.00, 0.00, -0.00, -1.00, 433.9, 8.3)">d</text><text xml:space="preserve" font-family="Helvetica-Light,Helvetica" font-size="30.0" fill="#164E86" transform="matrix(1.00, 0.00, -0.00, -1.00, 452.2, 8.3)"> </text><text xml:space="preserve" font-family="Helvetica-Light,Helvetica" font-size="30.0" fill="#164E86" transform="matrix(1.00, 0.00, -0.00, -1.00, 460.6, 8.3)">c</text><text xml:space="preserve" font-family="Helvetica-Light,Helvetica" font-size="30.0" fill="#164E86" transform="matrix(1.00, 0.00, -0.00, -1.00, 477.3, 8.3)">l</text><text xml:space="preserve" font-family="Helvetica-Light,Helvetica" font-size="30.0" fill="#164E86" transform="matrix(1.00, 0.00, -0.00, -1.00, 483.9, 8.3)">i</text><text xml:space="preserve" font-family="Helvetica-Light,Helvetica" font-size="30.0" fill="#164E86" transform="matrix(1.00, 0.00, -0.00, -1.00, 490.6, 8.3)">m</text><text xml:space="preserve" font-family="Helvetica-Light,Helvetica" font-size="30.0" fill="#164E86" transform="matrix(1.00, 0.00, -0.00, -1.00, 515.6, 8.3)">a</text><text xml:space="preserve" font-family="Helvetica-Light,Helvetica" font-size="30.0" fill="#164E86" transform="matrix(1.00, 0.00, -0.00, -1.00, 532.2, 8.3)">t</text><text xml:space="preserve" font-family="Helvetica-Light,Helvetica" font-size="30.0" fill="#164E86" transform="matrix(1.00, 0.00, -0.00, -1.00, 540.6, 8.3)">e</text><text xml:space="preserve" font-family="Helvetica-Light,Helvetica" font-size="30.0" fill="#164E86" transform="matrix(1.00, 0.00, -0.00, -1.00, 557.3, 8.3)"> </text><text xml:space="preserve" font-family="Helvetica-Light,Helvetica" font-size="30.0" fill="#164E86" transform="matrix(1.00, 0.00, -0.00, -1.00, 565.6, 8.3)">c</text><text xml:space="preserve" font-family="Helvetica-Light,Helvetica" font-size="30.0" fill="#164E86" transform="matrix(1.00, 0.00, -0.00, -1.00, 582.3, 8.3)">h</text><text xml:space="preserve" font-family="Helvetica-Light,Helvetica" font-size="30.0" fill="#164E86" transform="matrix(1.00, 0.00, -0.00, -1.00, 599.0, 8.3)">a</text><text xml:space="preserve" font-family="Helvetica-Light,Helvetica" font-size="30.0" fill="#164E86" transform="matrix(1.00, 0.00, -0.00, -1.00, 615.6, 8.3)">n</text><text xml:space="preserve" font-family="Helvetica-Light,Helvetica" font-size="30.0" fill="#164E86" transform="matrix(1.00, 0.00, -0.00, -1.00, 632.3, 8.3)">g</text><text xml:space="preserve" font-family="Helvetica-Light,Helvetica" font-size="30.0" fill="#164E86" transform="matrix(1.00, 0.00, -0.00, -1.00, 650.7, 8.3)">e</text><text xml:space="preserve" font-family="Helvetica-Light,Helvetica" font-size="30.0" fill="#164E86" transform="matrix(1.00, 0.00, -0.00, -1.00, 667.3, 8.3)"> </text><text xml:space="preserve" font-family="Helvetica-Light,Helvetica" font-size="30.0" fill="#164E86" transform="matrix(1.00, 0.00, -0.00, -1.00, 675.7, 8.3)">a</text><text xml:space="preserve" font-family="Helvetica-Light,Helvetica" font-size="30.0" fill="#164E86" transform="matrix(1.00, 0.00, -0.00, -1.00, 692.4, 8.3)">r</text><text xml:space="preserve" font-family="Helvetica-Light,Helvetica" font-size="30.0" fill="#164E86" transform="matrix(1.00, 0.00, -0.00, -1.00, 701.8, 8.3)">e</text><text xml:space="preserve" font-family="Helvetica-Light,Helvetica" font-size="30.0" fill="#164E86" transform="matrix(1.00, 0.00, -0.00, -1.00, 718.5, 8.3)"> </text><text xml:space="preserve" font-family="Helvetica-Light,Helvetica" font-size="30.0" fill="#164E86" transform="matrix(1.00, 0.00, -0.00, -1.00, 726.8, 8.3)">a</text><text xml:space="preserve" font-family="Helvetica-Light,Helvetica" font-size="30.0" fill="#164E86" transform="matrix(1.00, 0.00, -0.00, -1.00, 743.5, 8.3)"> </text><text xml:space="preserve" font-family="Helvetica-Light,Helvetica" font-size="30.0" fill="#164E86" transform="matrix(1.00, 0.00, -0.00, -1.00, 751.8, 8.3)">f</text><text xml:space="preserve" font-family="Helvetica-Light,Helvetica" font-size="30.0" fill="#164E86" transform="matrix(1.00, 0.00, -0.00, -1.00, 760.2, 8.3)">a</text><text xml:space="preserve" font-family="Helvetica-Light,Helvetica" font-size="30.0" fill="#164E86" transform="matrix(1.00, 0.00, -0.00, -1.00, 776.9, 8.3)">c</text><text xml:space="preserve" font-family="Helvetica-Light,Helvetica" font-size="30.0" fill="#164E86" transform="matrix(1.00, 0.00, -0.00, -1.00, 793.5, 8.3)">t</text><text xml:space="preserve" font-family="Helvetica-Light,Helvetica" font-size="30.0" fill="#164E86" transform="matrix(1.00, 0.00, -0.00, -1.00, 801.9, 8.3)">.</text><text xml:space="preserve" font-family="Helvetica-Light,Helvetica" font-size="30.0" fill="#164E86" transform="matrix(1.00, 0.00, -0.00, -1.00, 810.2, 8.3)">”</text></g></svg>