<?xml version="1.0" encoding="UTF-8" standalone="no"?><svg xmlns="http://www.w3.org/2000/svg" xmlns:xlink="http://www.w3.org/1999/xlink" clip-rule="evenodd" stroke-miterlimit="10" viewBox="0 0 625 134"><desc>SVG generated by Keynote</desc><defs></defs><g transform="matrix(1.00, 0.00, -0.00, -1.00, 0.0, 134.0)"><text xml:space="preserve" font-family="Helvetica-Light,Helvetica" font-size="62.0" fill="#000000" transform="matrix(1.00, 0.00, -0.00, -1.00, -3.6, 88.3)">R</text><text xml:space="preserve" font-family="Helvetica-Light,Helvetica" font-size="62.0" fill="#000000" transform="matrix(1.00, 0.00, -0.00, -1.00, 37.8, 88.3)">e</text><text xml:space="preserve" font-family="Helvetica-Light,Helvetica" font-size="62.0" fill="#000000" transform="matrix(1.00, 0.00, -0.00, -1.00, 72.3, 88.3)">l</text><text xml:space="preserve" font-family="Helvetica-Light,Helvetica" font-size="62.0" fill="#000000" transform="matrix(1.00, 0.00, -0.00, -1.00, 86.0, 88.3)">a</text><text xml:space="preserve" font-family="Helvetica-Light,Helvetica" font-size="62.0" fill="#000000" transform="matrix(1.00, 0.00, -0.00, -1.00, 120.5, 88.3)">t</text><text xml:space="preserve" font-family="Helvetica-Light,Helvetica" font-size="62.0" fill="#000000" transform="matrix(1.00, 0.00, -0.00, -1.00, 137.7, 88.3)">i</text><text xml:space="preserve" font-family="Helvetica-Light,Helvetica" font-size="62.0" fill="#000000" transform="matrix(1.00, 0.00, -0.00, -1.00, 151.5, 88.3)">o</text><text xml:space="preserve" font-family="Helvetica-Light,Helvetica" font-size="62.0" fill="#000000" transform="matrix(1.00, 0.00, -0.00, -1.00, 186.0, 88.3)">n</text><text xml:space="preserve" font-family="Helvetica-Light,Helvetica" font-size="62.0" fill="#000000" transform="matrix(1.00, 0.00, -0.00, -1.00, 220.4, 88.3)">s</text><text xml:space="preserve" font-family="Helvetica-Light,Helvetica" font-size="62.0" fill="#000000" transform="matrix(1.00, 0.00, -0.00, -1.00, 251.4, 88.3)">h</text><text xml:space="preserve" font-family="Helvetica-Light,Helvetica" font-size="62.0" fill="#000000" transform="matrix(1.00, 0.00, -0.00, -1.00, 285.9, 88.3)">i</text><text xml:space="preserve" font-family="Helvetica-Light,Helvetica" font-size="62.0" fill="#000000" transform="matrix(1.00, 0.00, -0.00, -1.00, 299.7, 88.3)">p</text><text xml:space="preserve" font-family="Helvetica-Light,Helvetica" font-size="62.0" fill="#000000" transform="matrix(1.00, 0.00, -0.00, -1.00, 337.6, 88.3)">s</text><text xml:space="preserve" font-family="Helvetica-Light,Helvetica" font-size="62.0" fill="#000000" transform="matrix(1.00, 0.00, -0.00, -1.00, 368.6, 88.3)"> </text><text xml:space="preserve" font-family="Helvetica-Light,Helvetica" font-size="62.0" fill="#000000" transform="matrix(1.00, 0.00, -0.00, -1.00, 385.8, 88.3)">b</text><text xml:space="preserve" font-family="Helvetica-Light,Helvetica" font-size="62.0" fill="#000000" transform="matrix(1.00, 0.00, -0.00, -1.00, 423.7, 88.3)">e</text><text xml:space="preserve" font-family="Helvetica-Light,Helvetica" font-size="62.0" fill="#000000" transform="matrix(1.00, 0.00, -0.00, -1.00, 458.1, 88.3)">t</text><text xml:space="preserve" font-family="Helvetica-Light,Helvetica" font-size="62.0" fill="#000000" transform="matrix(1.00, 0.00, -0.00, -1.00, 475.4, 88.3)">w</text><text xml:space="preserve" font-family="Helvetica-Light,Helvetica" font-size="62.0" fill="#000000" transform="matrix(1.00, 0.00, -0.00, -1.00, 520.1, 88.3)">e</text><text xml:space="preserve" font-family="Helvetica-Light,Helvetica" font-size="62.0" fill="#000000" transform="matrix(1.00, 0.00, -0.00, -1.00, 554.6, 88.3)">e</text><text xml:space="preserve" font-family="Helvetica-Light,Helvetica" font-size="62.0" fill="#000000" transform="matrix(1.00, 0.00, -0.00, -1.00, 589.1, 88.3)">n</text><text xml:space="preserve" font-family="Helvetica-Light,Helvetica" font-size="62.0" fill="#000000" transform="matrix(1.00, 0.00, -0.00, -1.00, 623.6, 88.3)"> </text><text xml:space="preserve" font-family="Helvetica-Light,Helvetica" font-size="62.0" fill="#000000" transform="matrix(1.00, 0.00, -0.00, -1.00, 2.2, 14.3)">m</text><text xml:space="preserve" font-family="Helvetica-Light,Helvetica" font-size="62.0" fill="#000000" transform="matrix(1.00, 0.00, -0.00, -1.00, 53.9, 14.3)">e</text><text xml:space="preserve" font-family="Helvetica-Light,Helvetica" font-size="62.0" fill="#000000" transform="matrix(1.00, 0.00, -0.00, -1.00, 88.3, 14.3)">m</text><text xml:space="preserve" font-family="Helvetica-Light,Helvetica" font-size="62.0" fill="#000000" transform="matrix(1.00, 0.00, -0.00, -1.00, 140.0, 14.3)">b</text><text xml:space="preserve" font-family="Helvetica-Light,Helvetica" font-size="62.0" fill="#000000" transform="matrix(1.00, 0.00, -0.00, -1.00, 177.9, 14.3)">e</text><text xml:space="preserve" font-family="Helvetica-Light,Helvetica" font-size="62.0" fill="#000000" transform="matrix(1.00, 0.00, -0.00, -1.00, 212.4, 14.3)">r</text><text xml:space="preserve" font-family="Helvetica-Light,Helvetica" font-size="62.0" fill="#000000" transform="matrix(1.00, 0.00, -0.00, -1.00, 233.0, 14.3)">s</text><text xml:space="preserve" font-family="Helvetica-Light,Helvetica" font-size="62.0" fill="#000000" transform="matrix(1.00, 0.00, -0.00, -1.00, 264.0, 14.3)"> </text><text xml:space="preserve" font-family="Helvetica-Light,Helvetica" font-size="62.0" fill="#000000" transform="matrix(1.00, 0.00, -0.00, -1.00, 281.2, 14.3)">o</text><text xml:space="preserve" font-family="Helvetica-Light,Helvetica" font-size="62.0" fill="#000000" transform="matrix(1.00, 0.00, -0.00, -1.00, 315.7, 14.3)">f</text><text xml:space="preserve" font-family="Helvetica-Light,Helvetica" font-size="62.0" fill="#000000" transform="matrix(1.00, 0.00, -0.00, -1.00, 332.9, 14.3)"> </text><text xml:space="preserve" font-family="Helvetica-Light,Helvetica" font-size="62.0" fill="#000000" transform="matrix(1.00, 0.00, -0.00, -1.00, 350.2, 14.3)">C</text><text xml:space="preserve" font-family="Helvetica-Light,Helvetica" font-size="62.0" fill="#000000" transform="matrix(1.00, 0.00, -0.00, -1.00, 394.9, 14.3)">o</text><text xml:space="preserve" font-family="Helvetica-Light,Helvetica" font-size="62.0" fill="#000000" transform="matrix(1.00, 0.00, -0.00, -1.00, 429.4, 14.3)">n</text><text xml:space="preserve" font-family="Helvetica-Light,Helvetica" font-size="62.0" fill="#000000" transform="matrix(1.00, 0.00, -0.00, -1.00, 463.9, 14.3)">g</text><text xml:space="preserve" font-family="Helvetica-Light,Helvetica" font-size="62.0" fill="#000000" transform="matrix(1.00, 0.00, -0.00, -1.00, 501.8, 14.3)">r</text><text xml:space="preserve" font-family="Helvetica-Light,Helvetica" font-size="62.0" fill="#000000" transform="matrix(1.00, 0.00, -0.00, -1.00, 521.3, 14.3)">e</text><text xml:space="preserve" font-family="Helvetica-Light,Helvetica" font-size="62.0" fill="#000000" transform="matrix(1.00, 0.00, -0.00, -1.00, 555.8, 14.3)">s</text><text xml:space="preserve" font-family="Helvetica-Light,Helvetica" font-size="62.0" fill="#000000" transform="matrix(1.00, 0.00, -0.00, -1.00, 586.8, 14.3)">s</text></g></svg>